<svg width="748" height="131" xmlns="http://www.w3.org/2000/svg"><g fill-rule="nonzero" fill="#FFC240"><path d="M83.876 123.747l.753 3.968 1.383 2.382-85.073-.229 1.002-2.421.305-4.044V7.11L1.9 3.687.905 1.869h85.141L84.63 3.737l-.72 3.717zM239.297 129.868s1.727-1.495 1.958-2.421c.646-3.011-.434-5.935-.434-5.935l-26.923-42.44v-.274l.119 44.608.767 3.539 1.462 1.919h-85.118l1.403-1.92.733-3.792-.034-116.166-.742-3.364-1.391-1.753h85.152l-1.428 1.868-.734 3.717-.05 41.63L244.879 8.73s.637-1.58.637-3.858c0-1.434-1.402-3.77-1.402-3.77l84.746.096-36.876 52.439 44.441 71.019 3.328 2.551 3.784 1.654h-104.24v1.007zM489.642 48.73l3.87-.706 2.37-1.389-.068 35.9-2.49-1.457-3.682-.725-47.159.054v11.767h61.574l4.338-.863 2.133-1.645.141 40.51-149.164-.29 1.366-2.422.595-4.055V7.109l-.63-4.038-1.438-2.455 148.67.28.116 38.972-2.419-1.027-4.047-.285h-61.235V48.91zM631.415 55.55l-10.01 22.514h20.051l-10.04-22.514zM580.193 7.29s.632-2.274.36-4.086c-.245-1.772-1.424-2.45-1.424-2.45l115.379.034s-1.188.644-1.437 2.458c-.26 1.77.37 4.075.37 4.075l50.373 118.01 1.603 2.511 2.218 2.03-91.118.157s1.397-2.946 1.253-4.174c-.144-1.306-.595-2.991-.595-2.991l-5.918-16.58h-39.66l-6.486 16.577s-.615.144-.615 1.42c0 2.483 1.493 4.58 1.493 4.58h-73.477s2.528-1 3.925-4.055c1.14-2.416.92-2.275.92-2.275l42.836-115.24z"/></g></svg>